# xmcd
#
# Track frame offsets: 
#        150
#        10712
#        23591
#        36691
#        53218
#        68106
#        83458
#        102307
#        120637
#        135390
#        149556
#
# Disc length: 2187 seconds
#
# Revision: 1
# Processed by: cddbd v1.5.2PL0 Copyright (c) Steve Scherf et al.
# Submitted via: ExactAudioCopy v0.99pb4
#
DISCID=8e08890b
DTITLE=Nine Below Zero - Third Degree
DYEAR=1983
DGENRE=Blues
TTITLE0=Eleven Plus Eleven
TTITLE1=Wipe Away Your Kiss
TTITLE2=Why Can't We Be What We Want To Be
TTITLE3=Tearful Eye
TTITLE4=True Love Is A Crime
TTITLE5=Egg On My Face
TTITLE6=Sugarbeat (And Rhythm Sweet)
TTITLE7=Mystery Man
TTITLE8=Easy Street se17
TTITLE9=You Don't Love Me
TTITLE10=You Can't Say Yes And You Can't Say No
EXTD=
EXTT0=
EXTT1=
EXTT2=
EXTT3=
EXTT4=
EXTT5=
EXTT6=
EXTT7=
EXTT8=
EXTT9=
EXTT10=
PLAYORDER=
